<?xml version="1.0" encoding="UTF-8"?>
<svg version="1.1" xmlns="http://www.w3.org/2000/svg" width="256" height="256">
<path d="M0 0 C1.13308594 -0.06058594 2.26617187 -0.12117188 3.43359375 -0.18359375 C13.58198102 0.55030383 23.83574086 8.83546947 32.3125 13.9375 C34.70202308 15.36643081 37.09331842 16.79238715 39.484375 18.21875 C40.08197632 18.57582031 40.67957764 18.93289062 41.29528809 19.30078125 C47.0261636 22.72252565 52.79107824 26.08465243 58.5625 29.4375 C69.32613098 35.70086983 80.05347243 42.02378851 90.75390625 48.39453125 C94.78775553 50.79597854 98.8296418 53.18201186 102.88642883 55.54438782 C104.62849211 56.56030916 106.36759021 57.58111341 108.10571289 58.60375977 C110.26770768 59.87478521 112.43461126 61.13751132 114.60717773 62.39038086 C120.5949333 65.9300654 125.37434414 69.06118828 128.5625 75.4375 C129.11870387 81.44632541 129.62766195 87.68562058 126.09375 92.84765625 C121.22820054 97.89938745 114.93008654 101.58884286 108.5625 104.4375 C110.89745453 107.02344313 113.32910469 108.52184911 116.375 110.1875 C121.64997358 113.27227987 125.80086873 116.91423745 128.5625 122.4375 C129.06489048 127.93908755 129.32455731 132.82545569 126.9375 137.875 C121.51274942 143.72802037 115.44423334 147.47982331 108.5625 151.4375 C112.47314137 154.48115956 116.66487739 156.97162266 120.90625 159.5234375 C124.71187947 162.26572933 127.07523995 164.97571985 128.5625 169.4375 C128.87109375 172.07421875 128.87109375 172.07421875 129 175.125 C129.06058594 176.11886719 129.12117188 177.11273438 129.18359375 178.13671875 C128.06516544 184.08056733 124.82106399 187.79984414 119.97290039 191.31518555 C116.81917203 193.28114947 113.61788122 195.12239949 110.375 196.9375 C109.16938038 197.62914883 107.96480972 198.32262893 106.76123047 199.01782227 C104.26714146 200.45659153 101.76877596 201.88747303 99.26708984 203.31298828 C93.52944205 206.59161746 87.8634245 209.99108225 82.1875 213.375 C69.76728166 220.7427112 57.3144639 228.05432755 44.84846497 235.34423828 C40.78939269 237.71821559 36.73396181 240.09830614 32.6796875 242.48046875 C30.5365168 243.73707889 28.39329044 244.99359411 26.25 246.25 C25.28425049 246.8186377 24.31850098 247.38727539 23.32348633 247.97314453 C20.74704297 249.48089355 18.16111101 250.96833176 15.5625 252.4375 C14.83595215 252.84967773 14.1094043 253.26185547 13.36083984 253.68652344 C6.79952806 257.2124254 0.94230124 257.47212712 -6.4375 256.4375 C-10.78825357 254.97390879 -14.51914877 252.80862941 -18.4375 250.4375 C-19.60541929 249.75938563 -20.77476049 249.08371588 -21.9453125 248.41015625 C-24.72417358 246.80078136 -27.48828125 245.16861018 -30.24609375 243.5234375 C-34.18513861 241.17553777 -38.13798272 238.85195062 -42.09765625 236.5390625 C-54.75870306 229.14183594 -67.39025772 221.70307263 -79.94287109 214.12255859 C-85.66479937 210.67474176 -91.41290765 207.27857829 -97.1953125 203.93359375 C-98.5175873 203.16668249 -99.83985296 202.39975547 -101.16210938 201.6328125 C-103.69794671 200.1625245 -106.23896378 198.7017817 -108.78320312 197.24609375 C-124.60880768 188.12261022 -124.60880768 188.12261022 -127.4375 181.4375 C-128.16864978 175.40976522 -128.44532657 169.12643341 -124.8984375 163.95703125 C-121.86184926 160.79865471 -118.20088859 158.62860041 -114.4375 156.4375 C-113.73109375 156.02113281 -113.0246875 155.60476562 -112.296875 155.17578125 C-110.68804438 154.24383669 -109.06441788 153.33749713 -107.4375 152.4375 C-109.90646031 149.69513133 -112.65396943 148.00713808 -115.8125 146.125 C-120.94403713 142.92118317 -124.68866414 139.93517172 -127.4375 134.4375 C-127.93300761 129.01128553 -128.17230182 124.09080409 -125.9375 119.0625 C-120.57423124 113.4310678 -114.06857355 109.42319846 -107.4375 105.4375 C-111.34814137 102.39384044 -115.53987739 99.90337734 -119.78125 97.3515625 C-123.58687947 94.60927067 -125.95023995 91.89928015 -127.4375 87.4375 C-127.90971989 82.07277242 -128.1464736 77.14548185 -126.0625 72.125 C-118.2147906 64.09044037 -107.79935186 59.13337748 -98.109375 53.66015625 C-92.67967483 50.58808905 -87.30189915 47.4344323 -81.9375 44.25 C-73.28667996 39.11855474 -64.61740297 34.0195238 -55.9375 28.9375 C-47.03323306 23.72257082 -38.13414944 18.49916458 -29.25 13.25 C-28.39664063 12.74597656 -27.54328125 12.24195313 -26.6640625 11.72265625 C-25.85324219 11.243125 -25.04242188 10.76359375 -24.20703125 10.26953125 C-23.4279541 9.80885254 -22.64887695 9.34817383 -21.84619141 8.87353516 C-20.12992036 7.85031335 -18.41922959 6.81770702 -16.71240234 5.77880859 C-15.82117676 5.23691895 -14.92995117 4.6950293 -14.01171875 4.13671875 C-13.20694092 3.64389404 -12.40216309 3.15106934 -11.57299805 2.64331055 C-7.71569258 0.46528017 -4.3692861 0.16074297 0 0 Z M-22.9375 24.3125 C-31.71225441 29.62656666 -40.53607014 34.83772247 -49.4375 39.9375 C-59.02848644 45.43711618 -68.5336638 51.06234235 -77.99243164 56.78613281 C-83.53022659 60.1270184 -89.09552899 63.40815736 -94.71484375 66.609375 C-95.31612091 66.95258789 -95.91739807 67.29580078 -96.53689575 67.64941406 C-99.44907645 69.31039073 -102.36541272 70.9627259 -105.2890625 72.60351562 C-106.32675781 73.19326172 -107.36445312 73.78300781 -108.43359375 74.390625 C-109.35325928 74.90786133 -110.2729248 75.42509766 -111.22045898 75.95800781 C-113.69093448 77.40144238 -113.69093448 77.40144238 -115.4375 80.4375 C-115.51159253 82.97369139 -115.51159253 82.97369139 -114.4375 85.4375 C-112.25233099 87.34152208 -112.25233099 87.34152208 -109.3828125 88.86328125 C-108.30725098 89.4864624 -107.23168945 90.10964355 -106.12353516 90.75170898 C-104.93660241 91.4179467 -103.74958837 92.08403961 -102.5625 92.75 C-101.33412349 93.45537366 -100.10676158 94.16251687 -98.88037109 94.87133789 C-96.33166071 96.34263494 -93.77874284 97.8062068 -91.22265625 99.26464844 C-85.45936335 102.56178298 -79.7655434 105.9749868 -74.0625 109.375 C-61.64517124 116.7409663 -49.19529129 124.05094678 -36.73252869 131.33970642 C-33.79532871 133.05751013 -30.85875398 134.77636006 -27.92382812 136.49804688 C-24.61687851 138.43789864 -21.30859242 140.3754519 -18 142.3125 C-17.01749268 142.8895166 -16.03498535 143.4665332 -15.02270508 144.06103516 C-13.24913525 145.09787212 -11.47125192 146.12738663 -9.68798828 147.14746094 C-7.84934799 148.2014179 -6.02920945 149.28759539 -4.21484375 150.3828125 C-0.35043483 151.85030956 1.56249497 151.5591509 5.5625 150.4375 C9.23932993 148.65516706 12.70039881 146.56304262 16.1875 144.4375 C18.33967395 143.15336121 20.49202546 141.86951998 22.64453125 140.5859375 C23.7732666 139.90756836 24.90200195 139.22919922 26.06494141 138.53027344 C29.5743468 136.42485144 33.10263477 134.35273028 36.63671875 132.2890625 C37.22892715 131.94325134 37.82113556 131.59744019 38.43128967 131.2411499 C39.63741495 130.53700663 40.84357662 129.83292571 42.04977417 129.12890625 C61.16426714 117.96107461 80.22601516 106.70110427 99.17892456 95.26098633 C100.42377534 94.51021551 101.66946912 93.76084051 102.91604614 93.01293945 C104.64453895 91.97517012 106.36923211 90.9310801 108.09375 89.88671875 C109.07923828 89.29205811 110.06472656 88.69739746 111.08007812 88.0847168 C113.22549817 86.66111835 114.93697351 85.42417931 116.5625 83.4375 C116.9807728 80.95756347 116.9807728 80.95756347 115.5625 78.4375 C112.98299398 76.3054258 110.10448059 74.75001139 107.1875 73.125 C105.34486424 72.06022084 103.5024266 70.99509877 101.66015625 69.9296875 C100.67031738 69.36475586 99.68047852 68.79982422 98.66064453 68.21777344 C94.40464048 65.77216417 90.1906547 63.2582291 85.97412109 60.74536133 C74.1657402 53.71008672 62.30788055 46.75891385 50.44238281 39.82055664 C44.30824394 36.23173001 38.18533584 32.62543008 32.08203125 28.984375 C31.47273773 28.62134277 30.86344421 28.25831055 30.23568726 27.88427734 C27.34333663 26.16081607 24.45305553 24.43418387 21.56640625 22.70117188 C2.07859838 11.078779 -3.82110815 12.63976712 -22.9375 24.3125 Z M-103.375 118.125 C-104.30763672 118.65544922 -105.24027344 119.18589844 -106.20117188 119.73242188 C-107.53825195 120.52036133 -107.53825195 120.52036133 -108.90234375 121.32421875 C-109.723396 121.80076904 -110.54444824 122.27731934 -111.39038086 122.76831055 C-113.83373798 124.76058636 -114.51289309 126.46269146 -115.4375 129.4375 C-111.95637345 133.16802792 -108.54994028 135.78786965 -104.1328125 138.328125 C-103.53689804 138.6739563 -102.94098358 139.0197876 -102.32701111 139.37609863 C-100.40951616 140.48701056 -98.48608796 141.58717886 -96.5625 142.6875 C-95.23183304 143.45647932 -93.90167512 144.22634017 -92.57202148 144.99707031 C-89.98851648 146.49421841 -87.40336636 147.98845278 -84.81689453 149.48046875 C-81.0211638 151.67860323 -77.25132917 153.91468443 -73.5 156.1875 C-58.78053891 165.06347133 -43.95837702 173.77199731 -29.08422852 182.38598633 C-24.49353302 185.04799523 -19.92771082 187.73299103 -15.42578125 190.54296875 C-14.66112549 191.01387939 -13.89646973 191.48479004 -13.10864258 191.9699707 C-11.71773058 192.83004324 -10.33509893 193.70374404 -8.96362305 194.59448242 C-5.31769992 196.8323052 -2.09054174 198.24073179 2.32470703 197.9765625 C7.44031403 196.74426267 11.80765807 193.72072362 16.25 191 C17.98085535 189.9696761 19.7117244 188.9393747 21.4432373 187.91015625 C23.26195316 186.82572914 25.07586425 185.73359848 26.88916016 184.64013672 C30.48354574 182.47764049 34.10277501 180.3599307 37.73046875 178.25390625 C50.62807872 170.7591566 63.43137087 163.12387054 76.16055298 155.34655762 C82.92019596 151.21806933 89.69633016 147.15127721 96.625 143.3125 C101.09658109 140.82666737 105.55637618 138.33079679 109.9375 135.6875 C110.79085937 135.17703125 111.64421875 134.6665625 112.5234375 134.140625 C114.93799333 132.12386956 115.64263596 130.40936844 116.5625 127.4375 C112.49505254 122.91358549 108.02139822 120.10755977 102.75 117.125 C101.56760742 116.4434082 101.56760742 116.4434082 100.36132812 115.74804688 C98.43232053 114.63740614 96.49947261 113.53417067 94.5625 112.4375 C71.88540694 125.3428275 49.24841753 138.3321733 26.92578125 151.84375 C26.01425293 152.39458252 25.10272461 152.94541504 24.16357422 153.51293945 C22.43779852 154.5574213 20.71403011 155.6052299 18.99267578 156.65698242 C10.70377493 161.67649728 3.45429755 164.42068478 -6.4375 162.4375 C-12.51073108 160.31702621 -17.9590873 156.7474689 -23.4375 153.4375 C-25.08708643 152.47017035 -26.73817665 151.50540134 -28.390625 150.54296875 C-32.03185053 148.41392196 -35.66018468 146.26471175 -39.28125 144.1015625 C-43.72657291 141.44866146 -48.18599309 138.82148109 -52.65625 136.2109375 C-53.27431519 135.84993454 -53.89238037 135.48893158 -54.5291748 135.11698914 C-55.786602 134.38263739 -57.04404835 133.64831845 -58.30151367 132.91403198 C-68.07313885 127.20680204 -77.81390532 121.4597602 -87.42480469 115.48388672 C-94.52682186 111.08202522 -96.43873423 114.05298713 -103.375 118.125 Z M-104.625 165.0625 C-105.55248047 165.59746094 -106.47996094 166.13242188 -107.43554688 166.68359375 C-108.31662109 167.21339844 -109.19769531 167.74320313 -110.10546875 168.2890625 C-110.91266357 168.77197754 -111.7198584 169.25489258 -112.55151367 169.75244141 C-114.60470804 171.34287517 -114.60470804 171.34287517 -115.45825195 173.88427734 C-115.68981762 176.5330779 -115.68981762 176.5330779 -113.8659668 178.52612305 C-111.2055337 180.62007406 -108.5171795 182.3297359 -105.58203125 184.01953125 C-104.72718643 184.51572464 -104.72718643 184.51572464 -103.85507202 185.02194214 C-102.62909166 185.73276717 -101.40149764 186.44081505 -100.17245483 187.14633179 C-96.88128011 189.03577276 -93.60181141 190.94538429 -90.3203125 192.8515625 C-89.6537413 193.23795395 -88.9871701 193.6243454 -88.30039978 194.02244568 C-82.0357443 197.65796885 -75.82586724 201.38181769 -69.625 205.125 C-57.63089773 212.34824578 -45.55194484 219.41835282 -33.4375 226.4375 C-32.27680681 227.11108152 -31.11616377 227.78474947 -29.95556641 228.45849609 C-26.98506689 230.18264262 -24.01326978 231.9045323 -21.04049683 233.62475586 C-19.35597645 234.59983383 -17.67224033 235.57626628 -15.98852539 236.55273438 C-14.95848389 237.14763672 -13.92844238 237.74253906 -12.8671875 238.35546875 C-11.96210449 238.87906982 -11.05702148 239.4026709 -10.12451172 239.94213867 C-3.74288651 243.8645928 -3.74288651 243.8645928 3.46826172 244.18164062 C8.51890156 242.38700898 13.04630515 239.43054345 17.625 236.6875 C18.78487912 236.00369679 19.94537047 235.32093109 21.10644531 234.63916016 C23.46763761 233.25001467 25.82472505 231.85429038 28.17822266 230.45214844 C31.24236873 228.62807302 34.31264484 226.81508893 37.38671875 225.0078125 C41.89664001 222.35404265 46.39902252 219.68780419 50.89892578 217.01708984 C54.4472481 214.91281437 57.99955642 212.81532241 61.55200195 210.71801758 C65.21424652 208.55566614 68.87521 206.39115076 72.53613281 204.2265625 C75.25954693 202.61659326 77.98343126 201.00742192 80.7073822 199.39836121 C83.09588499 197.98703538 85.48375593 196.57464293 87.87149048 195.16201782 C89.55994717 194.16347196 91.24907646 193.16606369 92.93823242 192.16870117 C95.0680657 190.90810196 97.19436618 189.64151273 99.31689453 188.36865234 C101.60899202 187.00484227 103.90705205 185.66985056 106.22607422 184.35400391 C107.42044511 183.65951961 108.61462386 182.96470474 109.80859375 182.26953125 C111.42592407 181.34684448 111.42592407 181.34684448 113.07592773 180.40551758 C115.7460588 178.6466033 115.7460588 178.6466033 116.51049805 175.8215332 C116.8025782 173.35577795 116.8025782 173.35577795 115.1484375 171.4609375 C111.64319387 168.71816378 107.99640723 166.35962446 104.1875 164.0625 C103.445 163.58683594 102.7025 163.11117187 101.9375 162.62109375 C97.59477713 159.96138865 97.59477713 159.96138865 92.6484375 159.78515625 C88.21191462 162.16066154 83.86826582 164.64475741 79.5625 167.25 C77.58080438 168.43502162 75.59903142 169.61991392 73.6171875 170.8046875 C72.10463379 171.71299316 72.10463379 171.71299316 70.56152344 172.63964844 C65.94873832 175.40491623 61.31861279 178.14057434 56.6875 180.875 C55.79514648 181.40270996 54.90279297 181.93041992 53.98339844 182.47412109 C45.96059324 187.21434996 37.91237784 191.91066968 29.85595703 196.59350586 C24.42289683 199.7546185 19.01761892 202.95442552 13.64746094 206.22143555 C7.99430233 209.5186701 2.00880724 210.47808037 -4.4375 209.4375 C-11.79319809 206.82037073 -18.47844021 202.67783087 -25.1875 198.75 C-26.30930664 198.09789551 -27.43111328 197.44579102 -28.58691406 196.77392578 C-31.59156011 195.02657188 -34.5925294 193.27300649 -37.59228516 191.51727295 C-39.43468686 190.43914618 -41.27779 189.36222821 -43.12109375 188.28564453 C-64.67319815 175.69589314 -64.67319815 175.69589314 -75.01953125 169.5078125 C-76.03370117 168.90275879 -77.04787109 168.29770508 -78.09277344 167.67431641 C-79.97762824 166.5482787 -81.85995811 165.41799946 -83.73925781 164.28271484 C-84.5690918 163.78723145 -85.39892578 163.29174805 -86.25390625 162.78125 C-86.97006104 162.35005859 -87.68621582 161.91886719 -88.42407227 161.47460938 C-95.11181544 158.02977695 -98.64071845 161.41549942 -104.625 165.0625 Z " fill="#FFFFFF" transform="translate(127.4375,-0.4375)"/>
</svg>
