<svg xmlns="http://www.w3.org/2000/svg" viewBox="0 0 64 64" id="whiteboard"><g><path d="M60,46.0483V11a3.0033,3.0033,0,0,0-3-3H35V5c0-3.8979-6-3.8753-6,0V8H7a3.0033,3.0033,0,0,0-3,3V46.05C1.1635,46.59,1.6177,51,4.5,51H21.5726l-2.5951,7.1362c-1.2506,3.4376,4.1646,5.3976,5.4121,1.9683L27.7,51h8.6l3.31,9.1045c1.2459,3.4263,6.6638,1.4724,5.4121-1.9683L42.4274,51H59.5C62.5625,51,62.7292,46.1667,60,46.0483ZM31,5a1,1,0,0,1,2,0V8H31ZM6,11a1.001,1.001,0,0,1,1-1H57a1.001,1.001,0,0,1,1,1V46H6ZM22.5107,59.4209a.8825.8825,0,0,1-1.6543-.6011L23.7,51h1.8721ZM43.1436,58.82a.8825.8825,0,0,1-1.6543.6011L38.4277,51H40.3ZM36.3,51l3.31,9.1045c1.2459,3.4263,6.6638,1.4724,5.4121-1.9683L42.4274,51M21.5726,51l-2.5951,7.1362c-1.2506,3.4376,4.1646,5.3976,5.4121,1.9683L27.7,51m-2.1279,0-3.0615,8.4209a.8825.8825,0,0,1-1.6543-.6011L23.7,51m16.6,0,2.8438,7.82a.8825.8825,0,0,1-1.6543.6011L38.4277,51M59.5,49H4.5a.5021.5021,0,0,1,0-1h55C60.3176,48,60.3569,49,59.5,49Z"></path><path d="M54,11H10a3.0033,3.0033,0,0,0-3,3V44a1,1,0,0,0,1,1H56a1,1,0,0,0,1-1V14A3.0033,3.0033,0,0,0,54,11Zm1,32H9V14a1.001,1.001,0,0,1,1-1H54a1.001,1.001,0,0,1,1,1Z"></path></g></svg>